<?xml version="1.0" standalone="no"?>
<!DOCTYPE svg PUBLIC "-//W3C//DTD SVG 20010904//EN"
 "http://www.w3.org/TR/2001/REC-SVG-20010904/DTD/svg10.dtd">
<svg version="1.0" xmlns="http://www.w3.org/2000/svg"
 width="1400.000000pt" height="1400.000000pt" viewBox="0 0 1400.000000 1400.000000"
 preserveAspectRatio="xMidYMid meet">
<metadata>
Created by potrace 1.11, written by Peter Selinger 2001-2013
</metadata>
<g transform="translate(0.000000,1400.000000) scale(0.100000,-0.100000)"
fill="#000000" stroke="none">
<path d="M3350 8230 c-25 -5 -92 -16 -150 -25 -58 -8 -117 -18 -132 -21 l-28
-6 0 -1158 0 -1159 53 -14 c74 -21 167 -40 260 -53 15 -2 42 -6 60 -9 17 -3
100 -8 183 -12 173 -7 280 5 394 44 222 75 364 208 458 430 81 189 89 496 20
721 -73 239 -221 405 -422 471 -89 30 -136 36 -276 35 -107 -1 -137 -5 -210
-29 -47 -15 -97 -34 -112 -41 l-28 -15 0 426 c0 334 -3 425 -12 424 -7 -1 -33
-5 -58 -9z m478 -1090 c184 -38 288 -205 296 -480 9 -297 -115 -499 -335 -546
-69 -15 -232 -15 -294 0 -11 3 -32 7 -47 11 l-28 5 0 464 0 464 33 20 c26 16
118 50 175 64 37 9 149 8 200 -2z"/>
<path d="M6550 8219 c-58 -10 -123 -20 -145 -24 -22 -3 -52 -8 -67 -11 l-28
-6 0 -1184 0 -1184 190 0 190 0 0 376 0 376 39 -31 c47 -37 164 -153 244 -242
55 -60 249 -312 258 -334 2 -5 24 -40 48 -77 l43 -68 220 0 219 0 -32 58
c-151 265 -479 678 -655 823 l-32 26 61 64 c33 35 103 109 156 165 53 55 132
140 176 189 44 48 87 95 95 104 9 9 52 57 95 106 44 50 85 93 90 97 6 4 -93 8
-219 8 l-228 0 -22 -27 c-28 -37 -245 -282 -316 -357 -30 -32 -66 -71 -80 -86
-14 -15 -55 -59 -92 -97 l-68 -71 0 714 c0 674 -1 714 -17 713 -10 -1 -65 -10
-123 -20z"/>
<path d="M13205 7930 c-22 -4 -65 -11 -95 -15 -30 -4 -57 -8 -60 -10 -3 -2
-27 -6 -55 -9 -27 -4 -62 -9 -78 -12 l-27 -6 1 -761 c1 -887 5 -940 81 -1092
47 -92 133 -170 231 -207 99 -38 138 -43 312 -42 154 0 216 11 351 62 54 19
56 24 38 97 -7 28 -15 64 -18 80 -27 142 -28 146 -45 140 -113 -44 -283 -64
-373 -46 -108 23 -160 83 -187 215 -5 27 -10 220 -11 428 l-1 378 293 2 292 3
1 135 c0 74 -1 145 -4 158 l-3 22 -289 0 -289 0 0 245 c0 190 -3 245 -12 244
-7 -1 -31 -5 -53 -9z"/>
<path d="M5255 7480 c-75 -13 -172 -48 -245 -88 -95 -52 -224 -185 -277 -287
-86 -166 -113 -291 -108 -505 1 -74 5 -148 8 -165 48 -268 164 -445 365 -558
68 -38 184 -79 257 -92 95 -16 329 -13 446 6 119 19 274 62 284 79 3 5 1 37
-5 70 -16 94 -18 105 -25 162 -9 70 -17 83 -41 70 -17 -9 -111 -36 -169 -48
-69 -15 -115 -19 -235 -19 -112 0 -147 4 -206 23 -161 50 -257 166 -289 350
l-5 32 539 0 539 0 5 28 c6 32 1 297 -6 309 -3 4 -8 30 -11 56 -9 66 -50 193
-82 253 -34 63 -96 140 -154 187 -62 52 -191 113 -275 129 -82 16 -238 20
-310 8z m231 -325 c127 -37 210 -153 229 -317 l6 -48 -351 0 -350 0 0 22 c0
43 42 154 78 207 84 123 243 179 388 136z"/>
<path d="M10759 7486 c-2 -2 -31 -7 -63 -11 -61 -6 -154 -25 -241 -48 -58 -15
-55 -1 -29 -177 9 -58 17 -115 18 -127 1 -18 5 -21 26 -16 14 3 33 10 42 14 9
5 69 18 133 29 156 27 318 23 390 -9 113 -50 161 -132 167 -288 3 -66 11 -62
-102 -45 -67 11 -319 9 -380 -3 -263 -48 -427 -186 -465 -389 -26 -139 3 -306
70 -406 49 -72 98 -115 180 -154 115 -56 202 -71 420 -71 169 0 358 10 374 19
3 2 29 7 56 10 48 5 145 21 193 32 l23 5 -1 553 c-1 507 -3 560 -21 642 -10
49 -24 103 -31 119 -18 46 -78 137 -107 163 -55 49 -148 106 -191 117 -3 1
-23 6 -45 13 -22 6 -53 14 -70 17 -36 8 -339 18 -346 11z m343 -946 c35 -6 72
-12 83 -15 19 -4 20 -12 18 -202 -1 -109 -2 -203 -2 -209 -2 -21 -34 -26 -197
-29 -145 -3 -167 -1 -227 19 -36 12 -76 31 -88 42 -34 30 -59 89 -63 146 -8
135 57 211 208 242 81 17 191 20 268 6z"/>
<path d="M8318 7475 c-2 -2 -30 -6 -63 -9 -93 -10 -139 -16 -155 -21 -8 -2
-31 -7 -50 -10 -50 -8 -130 -25 -167 -37 l-33 -10 0 -789 0 -789 190 0 190 0
0 659 0 658 58 8 c126 16 258 15 308 -2 65 -22 125 -84 147 -152 35 -108 39
-190 41 -681 l1 -485 190 -3 190 -2 -1 482 c-1 425 -7 649 -18 667 -2 3 -7 22
-10 42 -3 20 -8 43 -11 51 -4 11 10 22 53 41 207 93 402 69 473 -59 57 -101
62 -158 64 -714 l1 -505 190 -3 190 -2 -2 542 c-1 299 -4 559 -8 578 -3 19 -8
46 -11 60 -3 14 -7 40 -10 59 -9 51 -41 137 -71 189 -60 102 -185 189 -319
222 -65 16 -276 22 -340 9 -116 -22 -265 -80 -336 -130 -26 -18 -26 -18 -80
23 -118 89 -225 116 -446 115 -84 0 -154 -1 -155 -2z"/>
<path d="M12300 7473 c-143 -17 -313 -53 -415 -87 l-40 -14 -3 -781 -2 -781
190 0 190 0 0 654 c0 615 1 655 18 660 67 20 317 28 387 12 17 -4 50 -12 75
-17 25 -5 53 -12 63 -15 10 -3 17 -2 15 3 -1 4 4 33 10 64 7 30 15 69 18 85 3
16 12 57 20 92 7 35 14 65 14 67 0 5 -90 34 -127 40 -108 18 -171 23 -273 22
-63 -1 -126 -2 -140 -4z"/>
<path d="M64 6903 c1 -302 6 -560 9 -575 4 -16 9 -39 11 -53 10 -55 39 -142
66 -194 143 -282 449 -366 1015 -276 17 2 75 14 130 26 55 11 106 21 113 22 6
0 13 5 13 11 4 31 5 1563 1 1574 -3 9 -50 12 -191 12 l-186 0 1 -657 c0 -362
-3 -663 -8 -669 -9 -13 -69 -18 -233 -18 -123 -1 -133 1 -187 27 -76 37 -115
89 -147 191 l-24 81 -4 515 c-1 283 -3 518 -3 523 0 4 -85 7 -190 7 l-190 0 4
-547z"/>
<path d="M1614 7290 l0 -160 373 0 c327 0 405 -5 365 -22 -4 -1 -36 -39 -72
-83 -36 -44 -67 -82 -70 -85 -45 -43 -401 -522 -517 -695 -119 -178 -121 -184
-121 -317 l0 -118 652 0 651 0 0 160 0 160 -422 0 -422 0 31 48 c144 215 490
660 673 867 30 33 69 77 88 98 l34 38 0 135 1 134 -622 0 -622 0 0 -160z"/>
</g>
</svg>
